<svg width="327" height="60" viewBox="0 0 327 44" fill="none" xmlns="http://www.w3.org/2000/svg">
<path d="M24.4954 43H11.8954V11.85H0.62543V3.1H35.7654V11.85H24.4954V43Z" fill="#00EE5F"/>
<path d="M59.1159 10.1C59.7226 10.1 60.3526 10.17 61.0059 10.31C61.7059 10.45 62.2192 10.6133 62.5459 10.8C62.5459 11.8267 62.4292 13.53 62.1959 15.91C61.9626 18.2433 61.7526 19.9 61.5659 20.88C61.0992 20.8333 60.2359 20.81 58.9759 20.81C56.0359 20.81 53.4226 20.9733 51.1359 21.3V43H39.1659V10.8H49.1759L50.5759 15.98H50.6459C51.9992 14.2067 53.4459 12.7833 54.9859 11.71C56.5259 10.6367 57.9026 10.1 59.1159 10.1ZM82.7502 43L81.6302 38.59C79.4835 42.09 76.4969 43.84 72.6702 43.84C69.5435 43.84 66.9769 42.9767 64.9702 41.25C63.0102 39.4767 62.0302 37.0033 62.0302 33.83C62.0302 31.87 62.5902 30.1667 63.7102 28.72C64.8769 27.2267 66.4635 26.1767 68.4702 25.57C71.0835 24.8233 75.1202 24.4033 80.5802 24.31C80.5802 21.23 80.4402 19.5967 80.1602 19.41C79.9269 19.2233 79.1802 19.13 77.9202 19.13C77.1269 19.13 76.0302 19.1767 74.6302 19.27C72.3902 19.3633 69.3569 19.62 65.5302 20.04C65.1569 17.52 64.8769 14.8133 64.6902 11.92C67.1635 11.4067 69.7535 10.9867 72.4602 10.66C75.1669 10.2867 77.5935 10.1 79.7402 10.1C83.4735 10.1 86.2735 10.73 88.1402 11.99C90.0069 13.2033 91.2202 14.8133 91.7802 16.82C92.3402 18.8267 92.5969 21.37 92.5502 24.45L92.4802 34.74L92.6902 43H82.7502ZM76.7302 36C77.9435 36 79.2269 35.7667 80.5802 35.3V30.12H80.0202C76.5669 30.12 74.6535 30.3067 74.2802 30.68C74.0469 30.9133 73.8602 31.2633 73.7202 31.73C73.6269 32.1967 73.5802 32.64 73.5802 33.06C73.5802 34.18 73.8369 34.95 74.3502 35.37C74.8635 35.79 75.6569 36 76.7302 36ZM123.995 32.08C123.995 36.2333 122.665 39.22 120.005 41.04C117.392 42.86 113.658 43.77 108.805 43.77C105.398 43.77 101.478 43.28 97.045 42.3C97.1383 41.3667 97.3483 40.0367 97.675 38.31C98.0483 36.5367 98.3516 35.1833 98.585 34.25C100.265 34.53 102.132 34.7633 104.185 34.95C106.238 35.09 107.988 35.16 109.435 35.16C110.695 35.16 111.465 35.09 111.745 34.95C111.792 34.9033 111.838 34.7867 111.885 34.6C111.978 34.3667 112.025 34.1333 112.025 33.9C112.025 32.9667 111.442 32.3367 110.275 32.01C109.902 31.9167 108.478 31.52 106.005 30.82C103.532 30.12 101.502 28.86 99.915 27.04C98.375 25.1733 97.605 22.8633 97.605 20.11C97.605 18.6633 97.9316 17.0533 98.585 15.28C99.2383 13.5067 99.9383 12.3867 100.685 11.92C101.245 11.5467 102.598 11.1733 104.745 10.8C106.892 10.38 108.875 10.17 110.695 10.17C114.568 10.17 118.465 10.45 122.385 11.01C122.385 11.85 122.268 13.2733 122.035 15.28C121.802 17.24 121.592 18.4767 121.405 18.99C117.438 18.4767 114.242 18.22 111.815 18.22C110.555 18.22 109.738 18.29 109.365 18.43C109.272 18.4767 109.178 18.6167 109.085 18.85C108.992 19.0367 108.945 19.2933 108.945 19.62C108.945 20.2733 109.155 20.74 109.575 21.02C109.995 21.3467 111.092 21.7433 112.865 22.21C114.965 22.8167 116.762 23.4467 118.255 24.1C119.795 24.7533 121.125 25.7333 122.245 27.04C123.412 28.3467 123.995 30.0267 123.995 32.08ZM159.115 12.83C159.535 13.3433 159.838 14.6267 160.025 16.68C160.258 18.7333 160.375 21.86 160.375 26.06V43H148.405V26.2C148.405 26.0133 148.405 25.1033 148.405 23.47C148.405 21.79 148.288 20.7633 148.055 20.39C147.915 20.2033 147.565 20.0633 147.005 19.97C146.491 19.8767 145.885 19.83 145.185 19.83L143.995 19.9C142.688 19.9467 141.335 20.25 139.935 20.81V43H127.965V0.999998L139.935 0.509996V8.7C139.935 12.06 139.818 14.3 139.585 15.42L139.655 15.49C142.828 11.8967 146.631 10.1 151.065 10.1C152.745 10.1 154.308 10.3333 155.755 10.8C157.248 11.2667 158.368 11.9433 159.115 12.83ZM222.085 10.1C222.691 10.1 223.321 10.17 223.975 10.31C224.675 10.45 225.188 10.6133 225.515 10.8C225.515 11.8267 225.398 13.53 225.165 15.91C224.931 18.2433 224.721 19.9 224.535 20.88C224.068 20.8333 223.205 20.81 221.945 20.81C219.005 20.81 216.391 20.9733 214.105 21.3V43H202.135V10.8H212.145L213.545 15.98H213.615C214.968 14.2067 216.415 12.7833 217.955 11.71C219.495 10.6367 220.871 10.1 222.085 10.1ZM245.719 43L244.599 38.59C242.452 42.09 239.466 43.84 235.639 43.84C232.512 43.84 229.946 42.9767 227.939 41.25C225.979 39.4767 224.999 37.0033 224.999 33.83C224.999 31.87 225.559 30.1667 226.679 28.72C227.846 27.2267 229.432 26.1767 231.439 25.57C234.052 24.8233 238.089 24.4033 243.549 24.31C243.549 21.23 243.409 19.5967 243.129 19.41C242.896 19.2233 242.149 19.13 240.889 19.13C240.096 19.13 238.999 19.1767 237.599 19.27C235.359 19.3633 232.326 19.62 228.499 20.04C228.126 17.52 227.846 14.8133 227.659 11.92C230.132 11.4067 232.722 10.9867 235.429 10.66C238.136 10.2867 240.562 10.1 242.709 10.1C246.442 10.1 249.242 10.73 251.109 11.99C252.976 13.2033 254.189 14.8133 254.749 16.82C255.309 18.8267 255.566 21.37 255.519 24.45L255.449 34.74L255.659 43H245.719ZM239.699 36C240.912 36 242.196 35.7667 243.549 35.3V30.12H242.989C239.536 30.12 237.622 30.3067 237.249 30.68C237.016 30.9133 236.829 31.2633 236.689 31.73C236.596 32.1967 236.549 32.64 236.549 33.06C236.549 34.18 236.806 34.95 237.319 35.37C237.832 35.79 238.626 36 239.699 36ZM288.014 42.02C284.234 43.28 280.01 43.91 275.344 43.91C270.117 43.91 266.197 42.6033 263.584 39.99C261.017 37.33 259.734 33.2 259.734 27.6C259.734 24.8467 260.107 22.14 260.854 19.48C261.6 16.7733 262.394 14.9533 263.234 14.02C264.214 12.9467 266.127 12.0367 268.974 11.29C271.867 10.5433 274.854 10.17 277.934 10.17C281.154 10.17 284.397 10.45 287.664 11.01C287.57 12.1767 287.407 13.5533 287.174 15.14C286.987 16.68 286.777 18.0567 286.544 19.27C283.65 19.0833 280.92 18.99 278.354 18.99C275.834 18.99 274.224 19.13 273.524 19.41C273.15 19.55 272.8 20.5067 272.474 22.28C272.194 24.0533 272.054 25.71 272.054 27.25C272.054 29.3033 272.334 30.89 272.894 32.01C273.5 33.0833 274.434 33.83 275.694 34.25C276.954 34.67 278.657 34.88 280.804 34.88C281.737 34.88 283.79 34.7867 286.964 34.6L288.014 42.02ZM326.257 43H313.237L306.587 29.91C305.934 28.5567 305.071 27.6933 303.997 27.32V43H292.027V0.999998L303.997 0.509996V24.38C305.117 23.9133 306.074 22.9567 306.867 21.51L312.817 10.8L325.907 10.73L319.117 21.65C318.044 23.3767 316.877 24.7533 315.617 25.78C316.691 26.9467 317.904 28.72 319.257 31.1L326.257 43Z" fill="url(#paint0_linear_6_17)"/>
<path d="M187.464 43H174.864V11.85H163.594V3.1H198.734V11.85H187.464V43Z" fill="#00D154"/>
<defs>
<linearGradient id="paint0_linear_6_17" x1="-7" y1="0.5" x2="333" y2="0.5" gradientUnits="userSpaceOnUse">
<stop stop-color="#00FF66"/>
<stop offset="1" stop-color="#00993D"/>
</linearGradient>
</defs>
</svg>
